# xmcd
#
# Track frame offsets: 
#        150
#        13521
#        27655
#        43765
#        57802
#        73626
#        87923
#        102416
#        114644
#        126796
#        141208
#        156689
#        167631
#
# Disc length: 2392 seconds
#
# Revision: 0
# Processed by: cddbd v1.5.2PL0 Copyright (c) Steve Scherf et al.
# Submitted via: ExactAudioCopy v1.0b1
#
DISCID=b809560d
DTITLE=Donna Ulisse - Holy Waters
DYEAR=2010
DGENRE=Bluegrass
TTITLE0=Caney Creek To Canaan Land
TTITLE1=He Will
TTITLE2=This Crazy World
TTITLE3=To My Soul I Do
TTITLE4=Holy Waters
TTITLE5=Who You Need To Know
TTITLE6=A Promise That He Made
TTITLE7=Cover Me
TTITLE8=High In the Sky
TTITLE9=Who Will Sing For Me
TTITLE10=New Day In Heaven
TTITLE11=Lord I'm Yours
TTITLE12=My Jesus
EXTD=
EXTT0=
EXTT1=
EXTT2=
EXTT3=
EXTT4=
EXTT5=
EXTT6=
EXTT7=
EXTT8=
EXTT9=
EXTT10=
EXTT11=
EXTT12=
PLAYORDER=
